<?xml version="1.0" standalone="no"?>
<!DOCTYPE svg PUBLIC "-//W3C//DTD SVG 20010904//EN"
 "http://www.w3.org/TR/2001/REC-SVG-20010904/DTD/svg10.dtd">
<svg version="1.0" xmlns="http://www.w3.org/2000/svg"
 width="338.000000pt" height="338.000000pt" viewBox="0 0 338.000000 338.000000"
 preserveAspectRatio="xMidYMid meet">

<g transform="translate(0.000000,338.000000) scale(0.100000,-0.100000)"
fill="#000000" stroke="none">
<path d="M837 3115 c-3 -11 -27 -121 -52 -245 -144 -698 -228 -1082 -254
-1165 -38 -118 -51 -196 -51 -312 0 -51 -1 -93 -3 -93 -33 0 -433 -94 -439
-103 -12 -19 -10 -33 8 -48 14 -12 49 -7 231 30 117 24 215 42 217 40 2 -2 15
-42 31 -89 15 -47 34 -97 41 -112 17 -32 35 -25 -170 -67 -145 -31 -179 -47
-160 -79 17 -27 48 -25 222 11 l162 34 44 -61 c162 -226 429 -392 739 -457
145 -31 381 -31 524 -1 327 70 594 238 754 473 29 43 45 59 57 55 51 -15 367
-76 392 -76 34 0 51 33 27 57 -10 10 -359 93 -392 93 -1 0 10 35 26 78 16 42
33 95 39 118 l10 41 246 -50 c183 -38 250 -48 262 -40 20 12 25 33 14 50 -5 7
-120 37 -258 65 l-249 53 -2 105 c-2 107 -21 216 -54 305 -15 42 -124 553
-261 1220 -17 83 -34 153 -37 157 -4 4 -90 -159 -191 -363 -164 -329 -187
-369 -205 -364 -297 89 -573 94 -824 16 l-63 -20 -187 382 c-136 276 -189 376
-194 362z m408 -1199 c160 -95 106 -406 -71 -406 -55 0 -82 11 -118 46 -80 80
-89 231 -19 315 61 72 134 88 208 45z m989 1 c89 -50 123 -194 72 -304 -53
-112 -177 -139 -259 -57 -41 41 -59 80 -64 143 -16 173 122 292 251 218z"/>
</g>
</svg>
