<?xml version="1.0" standalone="no"?>
<!DOCTYPE svg PUBLIC "-//W3C//DTD SVG 20010904//EN"
 "http://www.w3.org/TR/2001/REC-SVG-20010904/DTD/svg10.dtd">
<svg version="1.0" xmlns="http://www.w3.org/2000/svg"
 width="980.000000pt" height="584.000000pt" viewBox="0 0 980.000000 584.000000"
 preserveAspectRatio="xMidYMid meet">

<g transform="translate(0.000000,584.000000) scale(0.100000,-0.100000)"
fill="#000000" stroke="none">
<path d="M4205 5812 c-51 -32 -85 -80 -85 -118 0 -96 100 -467 219 -814 39
-113 71 -212 71 -222 0 -19 -16 -25 -287 -119 -383 -132 -789 -307 -1118 -481
-296 -157 -678 -384 -768 -456 l-38 -31 -122 101 c-305 251 -623 444 -1051
639 -346 157 -801 329 -874 329 -60 0 -133 -57 -148 -117 -9 -34 16 -120 82
-286 209 -525 495 -1001 803 -1337 l59 -66 -95 -114 c-249 -297 -432 -577
-607 -927 -87 -174 -140 -291 -189 -424 -52 -137 -60 -182 -43 -222 16 -40 65
-83 103 -91 107 -24 872 286 1335 540 243 133 441 267 614 416 51 43 98 78
106 78 8 0 98 -54 201 -120 487 -312 820 -484 1332 -690 127 -51 240 -97 252
-104 22 -11 22 -11 -38 -171 -126 -338 -224 -678 -236 -819 -6 -71 -5 -73 27
-110 37 -42 78 -66 113 -66 134 0 1045 455 1493 745 l115 75 157 -17 c192 -20
812 -23 1022 -4 644 57 1354 299 1917 652 494 311 964 753 1172 1107 53 88
101 222 101 280 0 86 -56 211 -170 382 -431 641 -1161 1169 -2005 1449 -440
145 -855 215 -1366 230 -229 6 -258 9 -286 26 -17 11 -129 86 -249 166 -247
166 -395 253 -634 374 -341 172 -731 340 -812 351 -32 4 -51 0 -73 -14z m4046
-2384 c66 -31 124 -88 153 -148 32 -69 29 -197 -6 -265 -31 -60 -87 -114 -148
-146 -62 -32 -184 -33 -251 -2 -67 30 -124 86 -156 151 -23 48 -27 70 -27 137
0 71 4 87 34 143 58 110 157 166 281 159 43 -3 85 -13 120 -29z"/>
</g>
</svg>
